<svg width="738" height="856" viewBox="0 0 738 856" fill="none" xmlns="http://www.w3.org/2000/svg">
<path d="M368.908 20.9024C437.739 20.9024 505.024 41.3136 562.254 79.5547C619.484 117.796 664.089 172.149 690.428 235.741C716.766 299.333 723.656 369.308 710.224 436.815C696.793 504.323 663.645 566.332 614.972 615C566.298 663.668 504.286 696.809 436.777 710.232C369.268 723.656 299.294 716.758 235.705 690.412C172.116 664.067 117.768 619.456 79.5329 562.221C41.2983 504.987 20.8947 437.7 20.9025 368.869C20.9129 276.579 57.5824 188.072 122.845 122.817C188.108 57.5618 276.618 20.9024 368.908 20.9024ZM368.908 0C295.943 4.16955e-07 224.617 21.637 163.95 62.175C103.282 102.713 55.9985 160.331 28.0779 227.742C0.157269 295.154 -7.1461 369.331 7.09151 440.893C21.3291 512.456 56.468 578.189 108.065 629.78C159.661 681.371 225.398 716.503 296.962 730.733C368.526 744.963 442.702 737.652 510.111 709.724C577.519 681.796 635.132 634.506 675.664 573.834C716.195 513.162 737.825 441.834 737.817 368.869C737.702 271.067 698.797 177.305 629.637 108.152C560.477 38.9994 466.71 0.104377 368.908 0Z" fill="#FAA31E"/>
<path d="M315.508 474.052L320.122 565.865L255.364 658.269L243.809 416.156L254.181 415.012C255.632 414.856 257.096 415.151 258.373 415.857C259.65 416.563 260.679 417.645 261.319 418.956L271.021 438.676C271.662 439.987 272.69 441.069 273.968 441.775C275.245 442.48 276.709 442.775 278.16 442.619L284.982 441.87C286.44 441.705 287.912 441.996 289.197 442.702C290.483 443.409 291.518 444.496 292.16 445.814L304.505 471.212C305.261 472.789 306.572 474.032 308.188 474.701C309.804 475.371 311.61 475.421 313.26 474.841L315.508 474.052Z" fill="#D52A28"/>
<path d="M315.547 474.051L313.378 474.8C312.268 475.205 311.075 475.327 309.907 475.155C308.776 474.965 307.707 474.508 306.788 473.822C305.869 473.136 305.126 472.241 304.622 471.211L298.549 458.749L292.278 445.892C291.628 444.57 290.586 443.482 289.294 442.776C288.002 442.07 286.524 441.781 285.061 441.948H284.627L278.277 442.579C276.824 442.753 275.353 442.466 274.072 441.758C272.791 441.05 271.765 439.958 271.139 438.635L261.437 418.916C260.813 417.582 259.782 416.481 258.492 415.772C257.201 415.063 255.719 414.783 254.259 414.972L243.887 416.076L228.939 272.362L303.281 252.012L307.225 321.7L307.501 326.432V328.404L312.313 416.273L315.547 474.051Z" fill="#FAA31B"/>
<path d="M111.177 205.002L116.974 287.349L401.563 204.804L407.912 147.066C331.007 151.365 219.12 176.685 111.177 205.002Z" fill="#FAA31B"/>
<path d="M196.404 192.5L116.58 209.853L123.482 272.087L121.47 215.966L196.404 192.5Z" fill="white"/>
<path d="M509.94 556.319L444.945 551.547L456.225 456.895L457.053 456.698C458.024 456.417 459.044 456.346 460.044 456.491C461.045 456.636 462.003 456.994 462.854 457.539C463.705 458.084 464.43 458.805 464.981 459.652C465.531 460.5 465.894 461.456 466.045 462.456L471.33 500.711C471.57 502.404 472.419 503.951 473.719 505.062C475.019 506.173 476.679 506.772 478.389 506.745H487.618C488.787 506.74 489.939 507.029 490.966 507.588C491.994 508.146 492.863 508.955 493.494 509.94L503.314 524.769L503.038 535.969L509.94 556.319Z" fill="#D52A28"/>
<path d="M431.103 444.237L403.496 475.788L364.452 465.218L392.059 435.284C392.992 434.23 394.22 433.479 395.583 433.128C396.946 432.776 398.384 432.841 399.71 433.312L431.103 444.237Z" fill="#D52A28"/>
<path d="M418.325 322.569L374.943 400.382L329.391 321.229L307.108 321.781L307.384 326.513H325.724L362.125 385.908L323.633 329.235L307.542 328.485L312.354 416.354L337.318 458.475L364.57 465.14L392.177 435.206C393.111 434.152 394.338 433.401 395.701 433.049C397.065 432.698 398.502 432.762 399.829 433.234L431.379 444.237L458.75 412.923L456.659 457.055L457.488 456.858C458.459 456.577 459.479 456.506 460.479 456.652C461.479 456.797 462.437 457.154 463.289 457.699C464.14 458.244 464.865 458.964 465.415 459.812C465.966 460.66 466.329 461.616 466.48 462.616L471.764 500.871C472.004 502.564 472.854 504.111 474.154 505.222C475.454 506.333 477.114 506.932 478.824 506.905H488.053C489.222 506.9 490.374 507.19 491.401 507.748C492.428 508.307 493.298 509.116 493.929 510.1L503.315 524.771L507.259 381.215L578.919 387.327L585.86 336.057L418.325 322.569ZM578.288 374.431L577.618 342.328L442.383 326.553L582.192 338.7L578.288 374.431Z" fill="#FAA31B"/>
<path d="M582.192 338.581L578.327 374.43L577.617 342.327L442.422 326.434L582.192 338.581Z" fill="#FAA31B"/>
<path d="M362.124 385.907L323.632 329.234L307.542 328.484L267.038 326.591L307.423 326.512L325.723 326.434L362.124 385.907Z" fill="white"/>
<path d="M582.192 338.581L578.327 374.43L577.617 342.327L442.422 326.434L582.192 338.581Z" fill="white"/>
<path d="M589.685 261.675C587.359 282.105 586.728 305.413 576.434 325.014C519.445 325.29 506.391 320.123 463.127 314.286L475.471 281.592L548.117 286.167C549.265 285.674 550.192 284.775 550.72 283.643L553.402 284.155C554.156 284.284 554.929 284.244 555.666 284.038C556.402 283.831 557.084 283.464 557.661 282.962C558.239 282.46 558.697 281.836 559.004 281.135C559.311 280.435 559.459 279.675 559.436 278.91L558.963 269.445C558.947 268.96 558.854 268.48 558.687 268.025L555.137 257.732C554.813 256.785 554.774 255.764 555.026 254.796C555.279 253.828 555.811 252.956 556.557 252.289L589.685 261.675Z" fill="#D52A28"/>
<path d="M626.362 190.369L626.599 218.371L556.911 227.797L552.967 251.46L556.595 252.446C555.85 253.113 555.317 253.985 555.065 254.953C554.812 255.921 554.851 256.942 555.175 257.888L558.725 268.182C558.892 268.637 558.985 269.116 559.001 269.601L559.474 279.067C559.48 279.825 559.319 280.576 559.002 281.266C558.685 281.955 558.22 282.566 557.641 283.055C557.061 283.545 556.38 283.901 555.648 284.097C554.915 284.294 554.148 284.327 553.401 284.194L550.719 283.681C551.942 279.766 552.226 275.618 551.547 271.573C528.2 264.396 511.872 263.686 513.095 260.846C514.258 235.73 520.88 211.168 532.498 188.871C568.506 184.808 598.203 183.27 626.362 190.369Z" fill="#FAA31B"/>
<path d="M624.944 191.711L625.181 217.464L560.344 225.786L624.589 216.439L624.944 191.711Z" fill="white"/>
<path d="M275.762 797.35H261.86V837.15H250.848V797.35H237.015V788.41H275.762V797.35ZM290.649 838C284.848 838 280.282 836.38 276.951 833.14C273.643 829.877 271.989 825.458 271.989 819.884C271.989 814.129 273.711 809.631 277.155 806.391C280.6 803.128 285.256 801.496 291.125 801.496C296.903 801.496 301.435 803.128 304.72 806.391C308.006 809.631 309.649 813.925 309.649 819.272C309.649 825.05 307.949 829.616 304.55 832.97C301.174 836.323 296.54 838 290.649 838ZM290.921 809.721C288.383 809.721 286.412 810.594 285.007 812.339C283.602 814.083 282.899 816.553 282.899 819.748C282.899 826.433 285.596 829.775 290.989 829.775C296.132 829.775 298.704 826.342 298.704 819.476C298.704 812.973 296.11 809.721 290.921 809.721ZM350.231 837.15H339.525V817.811C339.525 812.418 337.599 809.721 333.747 809.721C331.889 809.721 330.359 810.435 329.158 811.863C327.957 813.29 327.357 815.103 327.357 817.301V837.15H316.616V802.346H327.357V807.852H327.493C330.053 803.615 333.781 801.496 338.675 801.496C346.379 801.496 350.231 806.277 350.231 815.839V837.15ZM414.028 837.15H403.322V817.301C403.322 812.248 401.464 809.721 397.748 809.721C395.98 809.721 394.541 810.481 393.431 811.999C392.321 813.517 391.766 815.409 391.766 817.675V837.15H381.025V817.097C381.025 812.18 379.201 809.721 375.553 809.721C373.718 809.721 372.245 810.447 371.134 811.897C370.047 813.347 369.503 815.318 369.503 817.811V837.15H358.762V802.346H369.503V807.784H369.639C370.749 805.926 372.301 804.419 374.295 803.264C376.312 802.085 378.51 801.496 380.889 801.496C385.806 801.496 389.171 803.66 390.984 807.988C393.635 803.66 397.532 801.496 402.676 801.496C410.244 801.496 414.028 806.164 414.028 815.5V837.15ZM427.964 796.84C426.151 796.84 424.667 796.307 423.511 795.242C422.356 794.155 421.778 792.829 421.778 791.266C421.778 789.657 422.356 788.342 423.511 787.323C424.667 786.303 426.151 785.793 427.964 785.793C429.799 785.793 431.283 786.303 432.416 787.323C433.572 788.342 434.15 789.657 434.15 791.266C434.15 792.897 433.572 794.234 432.416 795.276C431.283 796.319 429.799 796.84 427.964 796.84ZM433.266 837.15H422.525V802.346H433.266V837.15ZM468.682 835.893C466.258 837.298 462.757 838 458.18 838C452.832 838 448.504 836.38 445.196 833.14C441.888 829.899 440.234 825.719 440.234 820.598C440.234 814.684 442.001 810.027 445.536 806.628C449.093 803.207 453.84 801.496 459.777 801.496C463.878 801.496 466.847 802.04 468.682 803.128V812.237C466.439 810.56 463.935 809.721 461.171 809.721C458.089 809.721 455.642 810.628 453.829 812.441C452.039 814.231 451.144 816.712 451.144 819.884C451.144 822.966 452.005 825.39 453.727 827.158C455.449 828.902 457.817 829.775 460.831 829.775C463.505 829.775 466.122 828.936 468.682 827.26V835.893ZM473.475 836.233V827.532C475.242 828.597 476.998 829.39 478.743 829.911C480.51 830.432 482.176 830.693 483.739 830.693C485.643 830.693 487.138 830.432 488.226 829.911C489.336 829.39 489.891 828.597 489.891 827.532C489.891 826.852 489.642 826.285 489.144 825.832C488.645 825.379 487.999 824.982 487.206 824.643C486.436 824.303 485.586 823.997 484.657 823.725C483.728 823.453 482.833 823.147 481.972 822.807C480.59 822.286 479.366 821.731 478.301 821.142C477.259 820.53 476.375 819.827 475.65 819.034C474.948 818.241 474.404 817.324 474.018 816.281C473.656 815.239 473.475 814.004 473.475 812.576C473.475 810.628 473.894 808.951 474.732 807.546C475.593 806.141 476.726 804.997 478.131 804.113C479.559 803.207 481.179 802.55 482.992 802.142C484.827 801.711 486.73 801.496 488.702 801.496C490.242 801.496 491.806 801.621 493.392 801.87C494.978 802.097 496.542 802.436 498.083 802.89V811.183C496.723 810.39 495.261 809.801 493.698 809.416C492.157 809.008 490.639 808.804 489.144 808.804C488.441 808.804 487.773 808.872 487.138 809.008C486.526 809.121 485.983 809.302 485.507 809.551C485.031 809.778 484.657 810.084 484.385 810.469C484.113 810.832 483.977 811.251 483.977 811.727C483.977 812.361 484.181 812.905 484.589 813.358C484.997 813.811 485.529 814.208 486.186 814.548C486.844 814.865 487.569 815.16 488.362 815.432C489.178 815.681 489.982 815.941 490.775 816.213C492.203 816.712 493.494 817.256 494.65 817.845C495.805 818.434 496.791 819.125 497.607 819.918C498.445 820.711 499.08 821.64 499.51 822.705C499.963 823.77 500.19 825.039 500.19 826.512C500.19 828.574 499.737 830.341 498.83 831.814C497.947 833.264 496.757 834.454 495.261 835.383C493.789 836.289 492.078 836.946 490.129 837.354C488.203 837.785 486.198 838 484.113 838C480.284 838 476.738 837.411 473.475 836.233Z" fill="#FAA31B"/>
<path d="M242.23 844.34H495.623" stroke="#FAA31E" stroke-width="6.98063" stroke-miterlimit="10"/>
</svg>
